<svg width="969" height="561" viewBox="0 0 969 561" fill="none" xmlns="http://www.w3.org/2000/svg">
<path d="M406.099 171.03C511.815 145.692 612.28 135.195 689.213 138.667C727.694 140.403 760.165 145.63 784.426 154.168C808.747 162.728 824.348 174.436 829.966 188.883C835.584 203.329 830.972 219.883 816.887 237.647C802.838 255.368 779.621 273.941 748.938 292.255C687.592 328.871 596.791 364.217 491.075 389.555C385.359 414.894 284.895 425.391 207.961 421.919C169.481 420.182 137.009 414.956 112.748 406.418C88.4268 397.859 72.8255 386.151 67.2076 371.704C61.5899 357.257 66.2015 340.704 80.2863 322.939C94.3362 305.219 117.553 286.645 148.237 268.33C209.582 231.715 300.383 196.369 406.099 171.03Z" stroke="black" stroke-width="4"/>
<path d="M780.676 130.897L780.644 131.254L780.97 131.399L806.286 142.697L779.392 140.444L779.048 140.416L778.899 140.726L765.413 168.951L769.17 138.67L769.215 138.314L768.89 138.158L741.911 125.202L771.024 127.94L771.384 127.974L771.529 127.643L783.404 100.46L780.676 130.897Z" fill="black" stroke="black"/>
<path d="M347.901 164.176L347.919 164.534L348.261 164.633L374.879 172.379L347.929 173.809L347.584 173.827L347.479 174.156L337.963 203.953L337.561 173.444L337.557 173.084L337.214 172.974L308.722 163.812L337.936 162.561L338.298 162.545L338.396 162.197L346.459 133.651L347.901 164.176Z" fill="black" stroke="black"/>
<path d="M471.443 383.336L471.425 383.693L471.756 383.826L497.494 394.126L470.533 392.926L470.188 392.911L470.051 393.227L457.679 421.957L460.249 391.553L460.28 391.195L459.95 391.052L432.485 379.16L461.682 380.758L462.043 380.778L462.175 380.441L472.979 352.815L471.443 383.336Z" fill="black" stroke="black"/>
<path d="M116.402 410.624L116.384 410.982L116.715 411.114L142.453 421.414L115.492 420.214L115.147 420.199L115.01 420.515L102.638 449.245L105.208 418.841L105.239 418.483L104.909 418.34L77.4441 406.448L106.641 408.046L107.002 408.066L107.134 407.729L117.938 380.103L116.402 410.624Z" fill="black" stroke="black"/>
<path d="M239.527 349.167L239.509 349.524L239.84 349.657L265.578 359.957L238.617 358.757L238.272 358.742L238.135 359.058L225.763 387.788L228.333 357.384L228.364 357.026L228.034 356.883L200.569 344.991L229.766 346.589L230.127 346.609L230.259 346.272L241.063 318.646L239.527 349.167Z" fill="black" stroke="black"/>
<path d="M620.405 178.624L620.387 178.982L620.718 179.114L646.456 189.414L619.495 188.214L619.15 188.199L619.013 188.515L606.641 217.245L609.211 186.841L609.242 186.483L608.912 186.34L581.447 174.448L610.644 176.046L611.005 176.066L611.137 175.729L621.94 148.103L620.405 178.624Z" fill="black" stroke="black"/>
<path d="M531.123 241.966L531.175 242.319L531.526 242.384L540.907 244.106L531.78 245.529L531.438 245.583L531.367 245.92L529.119 256.597L527.905 246.069L527.864 245.711L527.512 245.637L517.213 243.447L527.355 241.973L527.714 241.921L527.776 241.565L529.548 231.464L531.123 241.966Z" fill="black" stroke="black"/>
<path d="M690.125 365.966L690.177 366.319L690.528 366.384L699.909 368.106L690.782 369.529L690.44 369.583L690.369 369.92L688.121 380.597L686.907 370.069L686.866 369.711L686.514 369.637L676.215 367.447L686.357 365.973L686.716 365.921L686.778 365.565L688.55 355.464L690.125 365.966Z" fill="black" stroke="black"/>
<path d="M360.247 320.509L360.299 320.862L360.65 320.926L370.031 322.649L360.904 324.072L360.562 324.126L360.491 324.463L358.243 335.14L357.03 324.612L356.988 324.254L356.636 324.18L346.337 321.99L356.479 320.516L356.838 320.464L356.9 320.108L358.672 310.007L360.247 320.509Z" fill="black" stroke="black"/>
<mask id="path-11-outside-1_672_51" maskUnits="userSpaceOnUse" x="67.1221" y="185.543" width="785" height="131" fill="black">
<rect fill="white" x="67.1221" y="185.543" width="785" height="131"/>
<path d="M215.425 313.543H196.435V203.822H87.3637V313.543H68.536V186.618H215.425V313.543ZM358.214 313.543H341.55L329.936 291.577H259.494L247.88 313.543H231.217L283.228 214.823H306.077L358.214 313.543ZM323.498 278.575L296.609 226.564H292.948L266.059 278.575H323.498ZM476.724 246.383C476.724 256.062 474.41 263.594 469.781 268.98C464.9 274.703 457.662 277.565 448.068 277.565H382.928V313.543H368.158V214.823H448.699C467.382 214.823 476.724 225.343 476.724 246.383ZM461.954 246.383C461.954 234.264 457.283 228.205 447.942 228.205H382.928V264.309H448.068C457.325 264.309 461.954 258.334 461.954 246.383ZM603.19 279.206C603.19 291.409 600.833 300.246 596.12 305.716C592.08 310.429 585.6 313.29 576.679 314.3C573.144 314.721 563.508 314.932 547.77 314.932C531.275 314.932 519.745 314.006 513.181 312.154C505.017 309.882 499.42 305.211 496.391 298.142C493.361 291.325 491.846 280.047 491.846 264.309C491.846 248.572 493.361 237.21 496.391 230.225C499.42 223.239 505.017 218.569 513.181 216.212C519.829 214.361 531.359 213.435 547.77 213.435C563.677 213.435 573.313 213.645 576.679 214.066C585.6 215.076 592.08 217.895 596.12 222.524C600.833 227.994 603.19 236.873 603.19 249.161H588.42C588.42 238.304 586.147 231.782 581.603 229.593C577.815 227.658 566.538 226.69 547.77 226.69C533.8 226.69 524.753 227.153 520.629 228.079C514.738 229.425 510.866 232.665 509.015 237.799C507.416 242.428 506.616 251.265 506.616 264.309C506.616 277.186 507.458 285.939 509.141 290.567C510.992 295.701 514.906 298.941 520.881 300.288C524.921 301.214 533.884 301.676 547.77 301.676C566.37 301.676 577.605 300.751 581.476 298.899C586.105 296.627 588.42 290.062 588.42 279.206H603.19ZM711.466 313.543H617.038V214.823H711.466V228.205H631.682V256.861H708.689V270.116H631.682V300.288H711.466V313.543ZM848.624 313.543H824.26L758.994 268.097H744.224V313.543H729.58V214.823H744.224V254.715H758.994L818.705 214.823H844.08L774.774 261.28L848.624 313.543Z"/>
</mask>
<path d="M215.425 313.543H196.435V203.822H87.3637V313.543H68.536V186.618H215.425V313.543ZM358.214 313.543H341.55L329.936 291.577H259.494L247.88 313.543H231.217L283.228 214.823H306.077L358.214 313.543ZM323.498 278.575L296.609 226.564H292.948L266.059 278.575H323.498ZM476.724 246.383C476.724 256.062 474.41 263.594 469.781 268.98C464.9 274.703 457.662 277.565 448.068 277.565H382.928V313.543H368.158V214.823H448.699C467.382 214.823 476.724 225.343 476.724 246.383ZM461.954 246.383C461.954 234.264 457.283 228.205 447.942 228.205H382.928V264.309H448.068C457.325 264.309 461.954 258.334 461.954 246.383ZM603.19 279.206C603.19 291.409 600.833 300.246 596.12 305.716C592.08 310.429 585.6 313.29 576.679 314.3C573.144 314.721 563.508 314.932 547.77 314.932C531.275 314.932 519.745 314.006 513.181 312.154C505.017 309.882 499.42 305.211 496.391 298.142C493.361 291.325 491.846 280.047 491.846 264.309C491.846 248.572 493.361 237.21 496.391 230.225C499.42 223.239 505.017 218.569 513.181 216.212C519.829 214.361 531.359 213.435 547.77 213.435C563.677 213.435 573.313 213.645 576.679 214.066C585.6 215.076 592.08 217.895 596.12 222.524C600.833 227.994 603.19 236.873 603.19 249.161H588.42C588.42 238.304 586.147 231.782 581.603 229.593C577.815 227.658 566.538 226.69 547.77 226.69C533.8 226.69 524.753 227.153 520.629 228.079C514.738 229.425 510.866 232.665 509.015 237.799C507.416 242.428 506.616 251.265 506.616 264.309C506.616 277.186 507.458 285.939 509.141 290.567C510.992 295.701 514.906 298.941 520.881 300.288C524.921 301.214 533.884 301.676 547.77 301.676C566.37 301.676 577.605 300.751 581.476 298.899C586.105 296.627 588.42 290.062 588.42 279.206H603.19ZM711.466 313.543H617.038V214.823H711.466V228.205H631.682V256.861H708.689V270.116H631.682V300.288H711.466V313.543ZM848.624 313.543H824.26L758.994 268.097H744.224V313.543H729.58V214.823H744.224V254.715H758.994L818.705 214.823H844.08L774.774 261.28L848.624 313.543Z" fill="black"/>
<path d="M215.425 313.543V314.543H216.425V313.543H215.425ZM196.435 313.543H195.435V314.543H196.435V313.543ZM196.435 203.822H197.435V202.822H196.435V203.822ZM87.3637 203.822V202.822H86.3637V203.822H87.3637ZM87.3637 313.543V314.543H88.3637V313.543H87.3637ZM68.536 313.543H67.536V314.543H68.536V313.543ZM68.536 186.618V185.618H67.536V186.618H68.536ZM215.425 186.618H216.425V185.618H215.425V186.618ZM215.425 313.543V312.543H196.435V313.543V314.543H215.425V313.543ZM196.435 313.543H197.435V203.822H196.435H195.435V313.543H196.435ZM196.435 203.822V202.822H87.3637V203.822V204.822H196.435V203.822ZM87.3637 203.822H86.3637V313.543H87.3637H88.3637V203.822H87.3637ZM87.3637 313.543V312.543H68.536V313.543V314.543H87.3637V313.543ZM68.536 313.543H69.536V186.618H68.536H67.536V313.543H68.536ZM68.536 186.618V187.618H215.425V186.618V185.618H68.536V186.618ZM215.425 186.618H214.425V313.543H215.425H216.425V186.618H215.425ZM358.214 313.543V314.543H359.873L359.098 313.076L358.214 313.543ZM341.55 313.543L340.666 314.01L340.948 314.543H341.55V313.543ZM329.936 291.577L330.82 291.11L330.539 290.577H329.936V291.577ZM259.494 291.577V290.577H258.892L258.61 291.11L259.494 291.577ZM247.88 313.543V314.543H248.483L248.764 314.01L247.88 313.543ZM231.217 313.543L230.332 313.077L229.56 314.543H231.217V313.543ZM283.228 214.823V213.823H282.624L282.343 214.357L283.228 214.823ZM306.077 214.823L306.961 214.356L306.68 213.823H306.077V214.823ZM323.498 278.575V279.575H325.141L324.386 278.115L323.498 278.575ZM296.609 226.564L297.497 226.104L297.218 225.564H296.609V226.564ZM292.948 226.564V225.564H292.339L292.06 226.104L292.948 226.564ZM266.059 278.575L265.171 278.115L264.416 279.575H266.059V278.575ZM358.214 313.543V312.543H341.55V313.543V314.543H358.214V313.543ZM341.55 313.543L342.434 313.076L330.82 291.11L329.936 291.577L329.052 292.045L340.666 314.01L341.55 313.543ZM329.936 291.577V290.577H259.494V291.577V292.577H329.936V291.577ZM259.494 291.577L258.61 291.11L246.996 313.076L247.88 313.543L248.764 314.01L260.378 292.045L259.494 291.577ZM247.88 313.543V312.543H231.217V313.543V314.543H247.88V313.543ZM231.217 313.543L232.101 314.009L284.112 215.29L283.228 214.823L282.343 214.357L230.332 313.077L231.217 313.543ZM283.228 214.823V215.823H306.077V214.823V213.823H283.228V214.823ZM306.077 214.823L305.193 215.29L357.33 314.01L358.214 313.543L359.098 313.076L306.961 214.356L306.077 214.823ZM323.498 278.575L324.386 278.115L297.497 226.104L296.609 226.564L295.721 227.023L322.61 279.034L323.498 278.575ZM296.609 226.564V225.564H292.948V226.564V227.564H296.609V226.564ZM292.948 226.564L292.06 226.104L265.171 278.115L266.059 278.575L266.947 279.034L293.836 227.023L292.948 226.564ZM266.059 278.575V279.575H323.498V278.575V277.575H266.059V278.575ZM469.781 268.98L469.023 268.329L469.02 268.331L469.781 268.98ZM382.928 277.565V276.565H381.928V277.565H382.928ZM382.928 313.543V314.543H383.928V313.543H382.928ZM368.158 313.543H367.158V314.543H368.158V313.543ZM368.158 214.823V213.823H367.158V214.823H368.158ZM382.928 228.205V227.205H381.928V228.205H382.928ZM382.928 264.309H381.928V265.309H382.928V264.309ZM476.724 246.383H475.724C475.724 255.91 473.447 263.18 469.023 268.329L469.781 268.98L470.539 269.632C475.373 264.008 477.724 256.214 477.724 246.383H476.724ZM469.781 268.98L469.02 268.331C464.379 273.773 457.456 276.565 448.068 276.565V277.565V278.565C457.868 278.565 465.421 275.633 470.542 269.629L469.781 268.98ZM448.068 277.565V276.565H382.928V277.565V278.565H448.068V277.565ZM382.928 277.565H381.928V313.543H382.928H383.928V277.565H382.928ZM382.928 313.543V312.543H368.158V313.543V314.543H382.928V313.543ZM368.158 313.543H369.158V214.823H368.158H367.158V313.543H368.158ZM368.158 214.823V215.823H448.699V214.823V213.823H368.158V214.823ZM448.699 214.823V215.823C457.854 215.823 464.546 218.395 468.97 223.377C473.414 228.382 475.724 235.99 475.724 246.383H476.724H477.724C477.724 235.737 475.363 227.565 470.466 222.049C465.548 216.511 458.228 213.823 448.699 213.823V214.823ZM461.954 246.383H462.954C462.954 240.223 461.772 235.42 459.243 232.139C456.676 228.809 452.846 227.205 447.942 227.205V228.205V229.205C452.379 229.205 455.555 230.63 457.659 233.36C459.801 236.139 460.954 240.424 460.954 246.383H461.954ZM447.942 228.205V227.205H382.928V228.205V229.205H447.942V228.205ZM382.928 228.205H381.928V264.309H382.928H383.928V228.205H382.928ZM382.928 264.309V265.309H448.068V264.309V263.309H382.928V264.309ZM448.068 264.309V265.309C452.929 265.309 456.727 263.728 459.273 260.44C461.782 257.201 462.954 252.46 462.954 246.383H461.954H460.954C460.954 252.257 459.812 256.479 457.692 259.216C455.61 261.904 452.464 263.309 448.068 263.309V264.309ZM603.19 279.206H604.19V278.206H603.19V279.206ZM596.12 305.716L595.363 305.063L595.361 305.065L596.12 305.716ZM576.679 314.3L576.567 313.307L576.561 313.307L576.679 314.3ZM513.181 312.154L513.452 311.192L513.449 311.191L513.181 312.154ZM496.391 298.142L497.31 297.748L497.304 297.736L496.391 298.142ZM496.391 230.225L497.308 230.623V230.623L496.391 230.225ZM513.181 216.212L512.912 215.249L512.903 215.251L513.181 216.212ZM576.679 214.066L576.555 215.058L576.567 215.06L576.679 214.066ZM596.12 222.524L596.878 221.871L596.874 221.866L596.12 222.524ZM603.19 249.161V250.161H604.19V249.161H603.19ZM588.419 249.161H587.419V250.161H588.419V249.161ZM581.603 229.593L581.147 230.484L581.158 230.489L581.169 230.494L581.603 229.593ZM520.629 228.079L520.41 227.103L520.406 227.104L520.629 228.079ZM509.015 237.799L508.074 237.46L508.069 237.473L509.015 237.799ZM509.141 290.567L510.082 290.228L510.081 290.226L509.141 290.567ZM520.881 300.288L521.105 299.313L521.101 299.312L520.881 300.288ZM581.476 298.899L581.908 299.801L581.917 299.797L581.476 298.899ZM588.419 279.206V278.206H587.419V279.206H588.419ZM603.19 279.206H602.19C602.19 291.321 599.842 299.864 595.363 305.063L596.12 305.716L596.878 306.369C601.824 300.628 604.19 291.496 604.19 279.206H603.19ZM596.12 305.716L595.361 305.065C591.546 309.516 585.348 312.313 576.567 313.307L576.679 314.3L576.792 315.294C585.853 314.268 592.615 311.343 596.879 306.367L596.12 305.716ZM576.679 314.3L576.561 313.307C573.099 313.72 563.534 313.932 547.77 313.932V314.932V315.932C563.482 315.932 573.19 315.723 576.797 315.293L576.679 314.3ZM547.77 314.932V313.932C531.274 313.932 519.869 313.002 513.452 311.192L513.181 312.154L512.909 313.117C519.621 315.01 531.276 315.932 547.77 315.932V314.932ZM513.181 312.154L513.449 311.191C505.543 308.991 500.207 304.508 497.31 297.748L496.391 298.142L495.471 298.536C498.634 305.915 504.491 310.774 512.912 313.118L513.181 312.154ZM496.391 298.142L497.304 297.736C494.366 291.124 492.846 280.029 492.846 264.309H491.846H490.846C490.846 280.066 492.356 291.526 495.477 298.548L496.391 298.142ZM491.846 264.309H492.846C492.846 248.593 494.365 237.408 497.308 230.623L496.391 230.225L495.473 229.827C492.357 237.012 490.846 248.55 490.846 264.309H491.846ZM496.391 230.225L497.308 230.623C500.204 223.945 505.543 219.457 513.458 217.173L513.181 216.212L512.903 215.251C504.491 217.68 498.636 222.534 495.473 229.827L496.391 230.225ZM513.181 216.212L513.449 217.175C519.953 215.364 531.36 214.435 547.77 214.435V213.435V212.435C531.359 212.435 519.706 213.357 512.912 215.249L513.181 216.212ZM547.77 213.435V214.435C563.706 214.435 573.266 214.647 576.555 215.058L576.679 214.066L576.803 213.074C573.36 212.643 563.647 212.435 547.77 212.435V213.435ZM576.679 214.066L576.567 215.06C585.352 216.054 591.553 218.812 595.367 223.182L596.12 222.524L596.874 221.866C592.608 216.979 585.848 214.098 576.792 213.072L576.679 214.066ZM596.12 222.524L595.363 223.177C599.842 228.376 602.19 236.959 602.19 249.161H603.19H604.19C604.19 236.788 601.825 227.613 596.878 221.871L596.12 222.524ZM603.19 249.161V248.161H588.419V249.161V250.161H603.19V249.161ZM588.419 249.161H589.419C589.419 243.677 588.847 239.207 587.66 235.797C586.469 232.38 584.626 229.939 582.036 228.692L581.603 229.593L581.169 230.494C583.124 231.436 584.689 233.35 585.771 236.455C586.855 239.568 587.419 243.788 587.419 249.161H588.419ZM581.603 229.593L582.058 228.703C580.985 228.155 579.461 227.71 577.547 227.341C575.618 226.969 573.229 226.663 570.39 226.419C564.71 225.932 557.167 225.69 547.77 225.69V226.69V227.69C557.141 227.69 564.621 227.932 570.219 228.412C573.018 228.652 575.332 228.951 577.168 229.305C579.021 229.662 580.326 230.064 581.147 230.484L581.603 229.593ZM547.77 226.69V225.69C533.827 225.69 524.662 226.148 520.41 227.103L520.629 228.079L520.848 229.054C524.843 228.157 533.773 227.69 547.77 227.69V226.69ZM520.629 228.079L520.406 227.104C514.225 228.516 510.055 231.967 508.074 237.46L509.015 237.799L509.955 238.138C511.677 233.364 515.25 230.334 520.852 229.053L520.629 228.079ZM509.015 237.799L508.069 237.473C506.408 242.281 505.616 251.28 505.616 264.309H506.616H507.616C507.616 251.25 508.423 242.574 509.96 238.126L509.015 237.799ZM506.616 264.309H505.616C505.616 277.173 506.45 286.093 508.201 290.909L509.141 290.567L510.081 290.226C508.466 285.784 507.616 277.199 507.616 264.309H506.616ZM509.141 290.567L508.2 290.907C510.183 296.405 514.401 299.853 520.661 301.263L520.881 300.288L521.101 299.312C515.411 298.03 511.801 294.997 510.082 290.228L509.141 290.567ZM520.881 300.288L520.658 301.263C524.829 302.218 533.913 302.676 547.77 302.676V301.676V300.676C533.855 300.676 525.013 300.209 521.105 299.313L520.881 300.288ZM547.77 301.676V302.676C557.082 302.676 564.572 302.445 570.228 301.979C575.831 301.517 579.784 300.817 581.908 299.801L581.476 298.899L581.045 297.997C579.297 298.833 575.697 299.521 570.064 299.985C564.486 300.445 557.058 300.676 547.77 300.676V301.676ZM581.476 298.899L581.917 299.797C584.539 298.51 586.414 296.045 587.627 292.604C588.837 289.173 589.419 284.691 589.419 279.206H588.419H587.419C587.419 284.577 586.845 288.806 585.741 291.939C584.639 295.063 583.042 297.016 581.036 298.001L581.476 298.899ZM588.419 279.206V280.206H603.19V279.206V278.206H588.419V279.206ZM711.466 313.543V314.543H712.466V313.543H711.466ZM617.038 313.543H616.038V314.543H617.038V313.543ZM617.038 214.823V213.823H616.038V214.823H617.038ZM711.466 214.823H712.466V213.823H711.466V214.823ZM711.466 228.205V229.205H712.466V228.205H711.466ZM631.682 228.205V227.205H630.682V228.205H631.682ZM631.682 256.861H630.682V257.861H631.682V256.861ZM708.689 256.861H709.689V255.861H708.689V256.861ZM708.689 270.116V271.116H709.689V270.116H708.689ZM631.682 270.116V269.116H630.682V270.116H631.682ZM631.682 300.288H630.682V301.288H631.682V300.288ZM711.466 300.288H712.466V299.288H711.466V300.288ZM711.466 313.543V312.543H617.038V313.543V314.543H711.466V313.543ZM617.038 313.543H618.038V214.823H617.038H616.038V313.543H617.038ZM617.038 214.823V215.823H711.466V214.823V213.823H617.038V214.823ZM711.466 214.823H710.466V228.205H711.466H712.466V214.823H711.466ZM711.466 228.205V227.205H631.682V228.205V229.205H711.466V228.205ZM631.682 228.205H630.682V256.861H631.682H632.682V228.205H631.682ZM631.682 256.861V257.861H708.689V256.861V255.861H631.682V256.861ZM708.689 256.861H707.689V270.116H708.689H709.689V256.861H708.689ZM708.689 270.116V269.116H631.682V270.116V271.116H708.689V270.116ZM631.682 270.116H630.682V300.288H631.682H632.682V270.116H631.682ZM631.682 300.288V301.288H711.466V300.288V299.288H631.682V300.288ZM711.466 300.288H710.466V313.543H711.466H712.466V300.288H711.466ZM848.624 313.543V314.543H851.768L849.202 312.727L848.624 313.543ZM824.26 313.543L823.688 314.364L823.946 314.543H824.26V313.543ZM758.994 268.097L759.565 267.276L759.308 267.097H758.994V268.097ZM744.224 268.097V267.097H743.224V268.097H744.224ZM744.224 313.543V314.543H745.224V313.543H744.224ZM729.58 313.543H728.58V314.543H729.58V313.543ZM729.58 214.823V213.823H728.58V214.823H729.58ZM744.224 214.823H745.224V213.823H744.224V214.823ZM744.224 254.715H743.224V255.715H744.224V254.715ZM758.994 254.715V255.715H759.297L759.549 255.547L758.994 254.715ZM818.705 214.823V213.823H818.402L818.15 213.992L818.705 214.823ZM844.08 214.823L844.636 215.654L847.367 213.823H844.08V214.823ZM774.774 261.28L774.217 260.449L773.011 261.257L774.196 262.096L774.774 261.28ZM848.624 313.543V312.543H824.26V313.543V314.543H848.624V313.543ZM824.26 313.543L824.831 312.722L759.565 267.276L758.994 268.097L758.422 268.917L823.688 314.364L824.26 313.543ZM758.994 268.097V267.097H744.224V268.097V269.097H758.994V268.097ZM744.224 268.097H743.224V313.543H744.224H745.224V268.097H744.224ZM744.224 313.543V312.543H729.58V313.543V314.543H744.224V313.543ZM729.58 313.543H730.58V214.823H729.58H728.58V313.543H729.58ZM729.58 214.823V215.823H744.224V214.823V213.823H729.58V214.823ZM744.224 214.823H743.224V254.715H744.224H745.224V214.823H744.224ZM744.224 254.715V255.715H758.994V254.715V253.715H744.224V254.715ZM758.994 254.715L759.549 255.547L819.261 215.655L818.705 214.823L818.15 213.992L758.438 253.884L758.994 254.715ZM818.705 214.823V215.823H844.08V214.823V213.823H818.705V214.823ZM844.08 214.823L843.523 213.993L774.217 260.449L774.774 261.28L775.331 262.11L844.636 215.654L844.08 214.823ZM774.774 261.28L774.196 262.096L848.046 314.359L848.624 313.543L849.202 312.727L775.352 260.463L774.774 261.28Z" fill="black" mask="url(#path-11-outside-1_672_51)"/>
</svg>
